<svg width="32" height="32" viewBox="0 0 32 32" fill="none" xmlns="http://www.w3.org/2000/svg">
  <defs>
    <!-- VaultShield gradient -->
    <linearGradient id="vaultGradient" x1="0%" y1="0%" x2="100%" y2="100%">
      <stop offset="0%" style="stop-color:#6366F1;stop-opacity:1" />
      <stop offset="50%" style="stop-color:#8B5CF6;stop-opacity:1" />
      <stop offset="100%" style="stop-color:#A855F7;stop-opacity:1" />
    </linearGradient>
    
    <!-- Hexagon shadow -->
    <filter id="hexShadow" x="-20%" y="-20%" width="140%" height="140%">
      <feDropShadow dx="1" dy="2" stdDeviation="1" flood-color="rgba(0,0,0,0.2)"/>
    </filter>
    
    <!-- Lock shadow -->
    <filter id="lockShadow" x="-20%" y="-20%" width="140%" height="140%">
      <feDropShadow dx="0.5" dy="1" stdDeviation="0.5" flood-color="rgba(0,0,0,0.3)"/>
    </filter>
  </defs>
  
  <!-- Background with rounded corners -->
  <rect width="32" height="32" rx="8" fill="url(#vaultGradient)"/>
  
  <!-- Hexagon vault -->
  <g filter="url(#hexShadow)">
    <!-- Hexagon outline -->
    <path d="M16 6 L24 10 L24 18 L16 22 L8 18 L8 10 Z" 
          fill="white" 
          stroke="url(#vaultGradient)" 
          stroke-width="0.5"/>
    
    <!-- Inner hexagon -->
    <path d="M16 8 L22 11 L22 17 L16 20 L10 17 L10 11 Z" 
          fill="url(#vaultGradient)" 
          opacity="0.1"/>
  </g>
  
  <!-- Lock icon -->
  <g filter="url(#lockShadow)">
    <!-- Lock body -->
    <rect x="13" y="13" width="6" height="6" rx="1" fill="white"/>
    <!-- Lock shackle -->
    <path d="M15 13 L15 11 C15 10 15.5 9.5 16 9.5 C16.5 9.5 17 10 17 11 L17 13" 
          stroke="white" 
          stroke-width="1.5" 
          fill="none"/>
  </g>
  
  <!-- VaultShield branding -->
  <text x="16" y="30" text-anchor="middle" fill="white" font-family="Arial, sans-serif" font-size="3" font-weight="bold" opacity="0.8">VS</text>
</svg>